<svg xmlns="http://www.w3.org/2000/svg" viewBox="0 0 748.89 755.57"><defs><style>.cls-1{fill:#fff;}</style></defs><title>Search</title><g id="Layer_2" data-name="Layer 2"><g id="Search"><line class="cls-1" x1="17.83" y1="738.05" x2="359.83" y2="390.05"/><rect class="cls-1" x="-55.13" y="539.05" width="487.92" height="50" transform="translate(-345.89 303.51) rotate(-45.51)"/><path class="cls-1" d="M496.33,50A41.62,41.62,0,0,1,526,62.27L686.62,222.92a42,42,0,0,1,0,59.26L526,442.83a41.87,41.87,0,0,1-59.25,0L306.05,282.18a42,42,0,0,1,0-59.26L466.71,62.27A41.62,41.62,0,0,1,496.33,50m0-50a91.61,91.61,0,0,0-65,26.92L270.7,187.57a91.9,91.9,0,0,0,0,130L431.35,478.19a91.9,91.9,0,0,0,130,0L722,317.54a91.9,91.9,0,0,0,0-130L561.32,26.92A91.62,91.62,0,0,0,496.33,0Z"/></g></g></svg>