<svg xmlns="http://www.w3.org/2000/svg" xmlns:xlink="http://www.w3.org/1999/xlink" viewBox="0 0 1000 1000">
  <defs>
    <style>
      .cls-1 {
        fill: none;
      }

      .cls-2 {
        isolation: isolate;
      }

      .cls-3 {
        fill: #242b33;
      }

      .cls-4 {
        clip-path: url(#clip-path);
      }

      .cls-5 {
        fill: #fff;
      }

      .cls-6 {
        fill: #171b20;
      }

      .cls-7 {
        fill: #161a1f;
      }
    </style>
    <clipPath id="clip-path">
      <polygon class="cls-1" points="997.5 45.08 996.04 830.89 25.3 967.32 26.76 181.51 997.5 45.08"/>
    </clipPath>
  </defs>
  <title>plurid-favicon</title>
  <g id="plurid-favicon">
    <g class="cls-2">
      <g>
        <polygon class="cls-3" points="997.5 45.08 996.04 830.89 25.3 967.32 26.76 181.51 997.5 45.08"/>
        <g class="cls-2">
          <g class="cls-4">
            <g>
              <path class="cls-5" d="M414.82,618.69c-36,5.06-68.85-2.49-99.13-20-3.72-2.15-5.09-5-5.06-9.95.27-49.81.29-99.58.39-149.36.09-49.61.32-99.23.1-148.78,0-6.33,2.08-8.51,7.26-10.42,24.65-9.1,49.54-14.45,74.52-18,6.36-.89,12.72-1.66,19.08-2.35,15.81-1.71,31.34-.77,46.12,3.46C501,275.59,527,306.48,539.15,352c8.54,32,9.35,65.77,6.44,100.3-1.81,21.39-5.12,42.7-12.21,63.6-19,56.12-55,90.07-108.08,101Q420,618,414.82,618.69M398.58,181.3c-21.16,3-42.36,7.94-63.45,13.8-33.67,9.35-66.86,22.73-100.29,34.12-4.34,1.47-5.45,3.58-5.45,8.21q-.44,321.81-1.1,643.67v5.64l82-11.52.37-196.6c1.65.7,2.39,1,3.11,1.32,35.24,16.19,72.16,21.42,110.39,16a242.09,242.09,0,0,0,48.63-12.29c65.18-23.55,110.56-72.1,136.33-141.23C636.46,469,640.09,396,623,325.61c-20.59-84.81-72.17-134-153.88-145.25-23.34-3.21-46.92-2.38-70.55.94"/>
              <path class="cls-5" d="M794.62,125.72l-82.91,11.65L711.23,395l82.91-11.65.48-257.67"/>
            </g>
          </g>
        </g>
      </g>
      <polygon class="cls-6" points="25.3 967.32 2.5 954.92 3.96 169.11 26.76 181.51 25.3 967.32"/>
      <polygon class="cls-7" points="26.76 181.51 3.96 169.11 974.71 32.68 997.5 45.08 26.76 181.51"/>
    </g>
  </g>
</svg>
